<svg id="svg" version="1.1" xmlns="http://www.w3.org/2000/svg" xmlns:xlink="http://www.w3.org/1999/xlink" width="400" height="300" viewBox="0, 0, 400,300"><g id="svgg"><path id="path0" d="M230.681 46.537 C 211.031 48.160,190.662 56.537,174.644 69.583 C 164.399 77.927,154.996 89.430,148.534 101.525 C 146.676 105.002,146.676 105.026,148.519 105.026 L 150.002 105.026 151.370 102.593 C 152.122 101.255,152.738 100.111,152.738 100.051 C 152.738 99.805,157.081 93.061,158.507 91.094 C 165.751 81.097,176.145 71.201,185.596 65.302 C 186.587 64.684,188.140 63.705,189.047 63.126 C 197.487 57.745,211.964 52.424,223.256 50.552 C 224.824 50.292,227.052 49.922,228.207 49.729 C 239.369 47.862,261.438 50.182,273.024 54.440 C 273.626 54.661,274.591 55.008,275.169 55.211 C 276.945 55.834,280.052 57.062,280.549 57.337 C 280.808 57.480,282.218 58.143,283.682 58.809 C 296.611 64.695,309.949 75.273,319.382 87.121 C 325.399 94.679,329.711 102.091,334.426 112.978 C 343.449 133.812,343.449 166.263,334.426 187.097 C 329.672 198.073,325.482 205.275,319.378 212.954 C 310.026 224.721,297.215 234.914,284.021 241.085 C 282.371 241.857,280.808 242.603,280.549 242.744 C 280.044 243.017,276.893 244.259,275.169 244.864 C 274.591 245.067,273.626 245.414,273.024 245.635 C 261.225 249.971,239.148 252.255,227.907 250.301 C 227.082 250.158,225.394 249.884,224.156 249.692 C 217.726 248.696,210.377 246.678,203.601 244.049 C 200.088 242.685,190.922 238.198,188.670 236.739 C 182.940 233.026,180.851 231.557,177.344 228.772 C 170.680 223.478,163.692 216.137,158.507 208.981 C 157.081 207.014,152.738 200.270,152.738 200.024 C 152.738 199.964,152.122 198.820,151.370 197.482 L 150.002 195.049 148.519 195.049 C 146.676 195.049,146.676 195.073,148.534 198.550 C 183.094 263.232,270.810 273.246,319.075 218.019 C 349.303 183.432,352.770 131.659,327.435 93.173 C 306.059 60.700,269.949 43.294,230.681 46.537 M201.950 114.014 C 194.887 115.408,196.002 125.131,203.226 125.131 C 210.549 125.131,211.446 114.857,204.201 113.956 C 203.541 113.874,202.528 113.900,201.950 114.014 M117.929 115.700 C 95.114 119.821,89.154 153.129,108.861 166.373 C 109.568 166.848,110.108 167.327,110.062 167.438 C 109.942 167.725,106.671 172.856,103.365 177.944 C 100.292 182.673,100.297 182.663,101.017 183.189 C 101.422 183.486,101.779 183.367,103.042 182.518 C 104.888 181.275,106.288 181.282,111.928 182.560 C 115.012 183.259,120.038 184.278,127.063 185.629 C 133.636 186.894,135.843 186.222,140.510 181.534 C 143.667 178.363,143.586 178.485,143.119 177.612 C 142.810 177.036,142.760 177.044,141.243 177.905 C 138.524 179.450,131.762 179.531,129.266 178.048 C 129.146 177.977,127.728 177.656,126.115 177.335 C 122.936 176.702,119.329 175.916,115.079 174.929 C 113.593 174.585,111.669 174.154,110.803 173.973 C 108.791 173.552,108.800 173.292,110.927 170.516 C 112.318 168.699,112.739 168.330,113.252 168.478 C 117.283 169.642,117.590 169.683,121.980 169.663 C 138.403 169.585,148.891 155.163,145.854 136.834 C 143.444 122.286,131.502 113.249,117.929 115.700 M127.073 118.538 C 132.594 121.284,134.275 126.927,134.267 142.686 C 134.256 161.555,131.539 167.315,122.474 167.685 C 112.683 168.086,109.213 161.466,109.232 142.417 C 109.248 126.570,111.845 119.606,118.380 117.895 C 120.387 117.370,125.481 117.746,127.073 118.538 M200.980 132.131 C 193.738 134.521,193.059 135.011,195.697 135.943 C 198.279 136.855,198.186 136.280,198.193 151.338 C 198.200 166.381,198.295 165.772,195.780 166.850 C 194.823 167.260,194.449 167.594,194.449 168.036 C 194.449 168.926,211.925 168.857,212.096 167.966 C 212.170 167.585,211.815 167.276,210.812 166.846 C 208.403 165.813,208.476 166.454,208.589 147.348 C 208.644 138.182,208.582 130.514,208.452 130.308 C 208.116 129.772,208.155 129.762,200.980 132.131 M226.107 130.660 C 225.116 131.028,223.091 131.757,221.605 132.281 C 215.015 134.605,214.392 135.120,217.166 135.952 C 219.729 136.722,219.676 136.380,219.584 151.688 C 219.495 166.605,219.579 166.086,217.104 166.932 C 216.264 167.219,215.904 167.514,215.904 167.917 C 215.904 168.469,216.259 168.495,224.681 168.572 L 233.458 168.651 233.455 167.972 C 233.453 167.464,233.148 167.164,232.249 166.786 C 229.898 165.799,229.872 165.620,229.864 150.748 L 229.857 137.806 230.833 137.062 C 235.415 133.567,241.260 133.341,242.941 136.594 C 243.282 137.253,243.361 139.938,243.361 150.952 C 243.361 166.285,243.427 165.832,241.035 166.868 C 240.134 167.259,239.760 167.599,239.760 168.031 C 239.760 168.632,239.908 168.642,248.612 168.642 C 257.316 168.642,257.464 168.632,257.464 168.031 C 257.464 167.600,257.090 167.257,256.189 166.864 C 253.941 165.884,254.032 166.496,253.857 151.238 C 253.706 138.145,253.673 137.519,253.054 135.991 C 250.069 128.636,240.977 127.791,231.998 134.034 C 229.753 135.595,229.805 135.619,229.515 132.899 C 229.174 129.713,228.986 129.590,226.107 130.660 M267.217 132.154 C 260.790 134.503,259.607 135.330,262.022 135.788 C 264.949 136.343,264.966 136.437,264.965 151.448 C 264.964 166.128,265.033 165.715,262.390 166.884 C 261.444 167.302,261.059 167.639,261.127 167.989 C 261.291 168.845,278.770 168.909,278.770 168.053 C 278.770 167.657,278.365 167.247,277.574 166.844 C 275.238 165.652,275.329 166.263,275.232 151.201 L 275.146 137.783 276.132 137.041 C 279.798 134.288,284.745 133.477,287.110 135.243 C 288.605 136.359,288.691 137.308,288.603 151.739 L 288.522 164.993 287.772 165.797 C 287.359 166.239,286.509 166.807,285.882 167.060 C 285.122 167.366,284.773 167.681,284.836 168.005 C 284.985 168.783,302.569 168.744,302.719 167.966 C 302.792 167.586,302.443 167.278,301.465 166.859 C 299.126 165.856,299.175 166.174,299.175 152.051 C 299.175 138.275,298.955 136.296,297.135 133.687 C 293.568 128.572,284.452 128.720,277.266 134.010 C 275.075 135.622,274.998 135.592,274.723 133.012 C 274.327 129.297,274.867 129.358,267.217 132.154 M158.890 131.114 C 157.569 131.412,155.206 131.894,153.638 132.185 C 149.571 132.940,148.754 133.753,151.229 134.582 C 153.372 135.301,153.363 135.237,153.306 148.687 C 153.239 164.593,153.529 165.769,158.141 168.316 L 160.090 169.392 163.991 169.392 C 168.796 169.392,171.442 168.485,175.449 165.462 C 176.995 164.296,177.035 164.343,177.500 167.862 L 177.695 169.333 181.646 169.111 C 191.509 168.556,192.703 168.216,189.541 166.860 C 187.287 165.894,187.397 166.870,187.397 147.787 L 187.397 130.683 186.745 130.590 C 186.086 130.496,185.592 130.580,180.195 131.706 C 174.223 132.952,173.893 133.054,173.893 133.664 C 173.893 134.042,174.237 134.346,174.927 134.578 C 177.241 135.357,177.167 134.821,177.097 150.442 L 177.044 162.100 176.163 162.923 C 173.956 164.985,168.648 165.929,166.259 164.685 C 163.525 163.261,163.691 164.438,163.691 146.488 L 163.691 130.683 162.491 130.628 C 161.830 130.598,160.210 130.817,158.890 131.114 " stroke="none" fill="#454446" fill-rule="evenodd"></path><path id="path1" d="M0.000 150.038 L 0.000 300.075 200.000 300.075 L 400.000 300.075 400.000 150.038 L 400.000 0.000 200.000 0.000 L 0.000 0.000 0.000 150.038 M251.163 46.222 C 260.979 47.375,272.350 50.108,278.065 52.687 C 278.585 52.921,279.105 53.113,279.220 53.113 C 280.143 53.113,290.070 58.138,295.521 61.365 C 307.209 68.283,322.225 83.214,328.774 94.429 C 329.081 94.955,330.031 96.576,330.886 98.031 C 349.337 129.456,349.337 170.619,330.886 202.044 C 330.031 203.500,329.081 205.120,328.774 205.646 C 322.173 216.950,307.612 231.425,295.519 238.706 C 292.299 240.645,287.843 243.042,284.921 244.408 C 282.941 245.335,281.050 246.219,280.720 246.374 C 279.931 246.745,274.601 248.678,272.318 249.420 C 266.079 251.450,259.013 252.931,251.163 253.853 C 248.061 254.218,232.979 254.231,229.857 253.873 C 225.876 253.415,221.062 252.668,218.905 252.172 C 213.495 250.928,205.433 248.550,203.301 247.570 C 202.971 247.418,201.755 246.930,200.600 246.485 C 193.665 243.818,180.125 235.856,175.654 231.815 C 175.467 231.646,174.727 231.035,174.009 230.458 C 163.972 222.379,153.572 209.451,147.577 197.599 C 146.123 194.726,146.117 194.749,148.329 194.749 L 150.262 194.749 152.597 198.875 C 155.035 203.182,158.225 208.147,160.152 210.635 C 163.423 214.856,165.005 216.628,169.687 221.315 C 173.048 224.680,177.090 228.216,181.095 231.294 C 182.135 232.093,189.515 236.822,190.248 237.158 C 190.495 237.272,191.170 237.651,191.748 238.001 C 199.063 242.431,212.527 247.285,222.056 248.927 C 226.976 249.775,228.245 249.930,232.807 250.245 C 244.131 251.027,253.574 250.280,264.454 247.741 C 267.556 247.018,277.360 243.850,278.020 243.358 C 278.185 243.235,278.657 243.033,279.070 242.909 C 283.020 241.722,296.804 233.826,300.981 230.358 C 301.411 230.000,302.142 229.437,302.605 229.107 C 307.321 225.742,315.746 217.171,320.334 211.071 C 321.563 209.438,322.673 207.967,322.800 207.802 C 325.811 203.910,331.538 193.293,333.807 187.397 C 334.251 186.242,334.737 185.026,334.886 184.696 C 335.149 184.112,336.118 181.199,337.103 178.032 C 337.919 175.404,339.088 169.988,339.969 164.741 C 340.488 161.657,341.035 154.103,341.035 150.038 C 341.035 145.972,340.488 138.418,339.969 135.334 C 339.088 130.087,337.919 124.671,337.103 122.043 C 336.025 118.574,335.124 115.929,334.715 115.033 C 334.478 114.513,334.286 113.973,334.289 113.833 C 334.323 112.145,325.927 96.383,322.804 92.273 C 322.679 92.108,321.591 90.661,320.388 89.058 C 316.014 83.234,307.389 74.410,302.919 71.189 C 302.751 71.067,301.806 70.357,300.819 69.609 C 297.288 66.936,295.488 65.761,290.323 62.755 C 287.211 60.945,279.976 57.314,279.479 57.314 C 279.387 57.314,278.885 57.121,278.365 56.885 C 276.601 56.085,273.528 54.978,270.818 54.166 C 269.332 53.721,267.779 53.243,267.367 53.103 C 265.100 52.334,259.476 51.163,254.464 50.417 C 246.949 49.299,233.618 49.304,226.407 50.428 C 220.891 51.288,216.639 52.161,213.953 52.985 C 213.211 53.213,211.185 53.829,209.452 54.353 C 207.719 54.877,206.167 55.403,206.002 55.521 C 205.836 55.639,205.161 55.908,204.501 56.119 C 202.152 56.868,194.937 60.209,191.598 62.093 C 189.376 63.347,182.408 67.782,181.095 68.778 C 173.490 74.548,164.671 83.257,160.163 89.449 C 158.015 92.400,156.832 94.144,155.299 96.624 C 152.777 100.703,152.773 100.710,151.533 103.050 L 150.406 105.176 148.397 105.266 C 146.092 105.368,146.098 105.391,147.581 102.476 C 153.697 90.450,163.955 77.696,174.007 69.617 C 174.726 69.040,175.467 68.432,175.654 68.267 C 180.502 63.986,193.613 56.271,200.600 53.588 C 201.755 53.145,202.971 52.657,203.301 52.505 C 205.433 51.525,213.495 49.147,218.905 47.903 C 221.004 47.421,225.878 46.652,229.557 46.224 C 232.497 45.881,248.253 45.880,251.163 46.222 M205.753 113.953 C 212.315 116.904,210.358 125.572,203.139 125.530 C 199.014 125.507,196.375 122.440,196.984 118.377 C 197.538 114.681,202.173 112.343,205.753 113.953 M124.711 115.247 C 140.356 116.992,148.989 130.857,146.093 149.587 C 145.914 150.743,145.667 151.823,145.543 151.988 C 145.420 152.153,145.223 152.688,145.106 153.178 C 143.215 161.064,135.347 168.015,126.182 169.897 C 123.758 170.395,116.609 170.008,114.629 169.271 L 112.978 168.658 112.228 169.518 C 109.766 172.344,109.421 173.205,110.637 173.490 C 111.100 173.598,112.693 173.972,114.179 174.320 C 117.407 175.077,121.638 176.015,125.131 176.750 C 126.534 177.045,129.032 177.583,130.683 177.946 C 136.094 179.136,137.915 179.104,140.609 177.773 L 142.904 176.639 143.463 177.367 C 144.215 178.345,144.355 178.091,141.434 181.053 C 134.720 187.858,134.542 187.873,113.578 183.350 C 111.928 182.993,109.632 182.502,108.477 182.256 C 105.859 181.701,104.661 181.875,103.027 183.049 C 101.786 183.940,101.713 183.955,100.834 183.500 C 99.602 182.863,99.491 183.108,104.476 175.490 C 110.297 166.593,109.958 167.538,107.848 166.085 C 100.613 161.102,96.924 153.192,96.924 142.662 C 96.924 126.592,106.197 116.064,121.317 114.968 C 121.612 114.946,123.140 115.072,124.711 115.247 M118.910 118.246 C 111.588 119.691,108.740 129.105,109.816 148.308 C 110.625 162.758,113.488 167.278,121.830 167.278 C 130.032 167.278,133.083 162.533,133.870 148.551 C 134.446 138.302,133.560 128.329,131.716 124.309 C 131.395 123.610,131.133 122.948,131.133 122.840 C 131.133 122.323,128.904 120.012,127.758 119.340 C 125.639 118.099,121.961 117.644,118.910 118.246 M208.734 129.984 C 208.853 130.177,208.919 137.929,208.879 147.210 C 208.798 166.350,208.701 165.510,211.124 166.582 C 212.265 167.087,212.453 167.296,212.453 168.060 L 212.453 168.951 203.226 168.872 L 193.998 168.792 193.903 167.965 C 193.836 167.376,193.965 167.088,194.353 166.965 C 197.916 165.829,197.749 166.595,197.749 151.388 C 197.749 136.673,197.672 136.234,195.071 136.234 C 194.335 136.234,193.780 135.515,193.900 134.717 C 194.074 133.567,208.169 129.070,208.734 129.984 M229.365 130.308 C 229.597 130.679,229.874 131.786,229.982 132.768 C 230.228 135.026,230.120 134.980,231.954 133.592 C 232.811 132.943,234.074 132.142,234.761 131.811 C 235.447 131.480,236.460 130.993,237.010 130.731 C 243.081 127.833,250.732 129.996,253.231 135.318 L 254.013 136.984 254.163 150.788 C 254.331 166.193,254.226 165.479,256.487 166.576 C 257.976 167.298,258.170 167.538,257.914 168.345 C 257.730 168.924,257.447 168.942,248.592 168.942 L 239.460 168.942 239.460 168.074 C 239.460 167.337,239.676 167.098,240.885 166.498 C 243.152 165.374,243.074 165.968,242.988 150.587 L 242.911 136.882 242.192 136.118 C 240.157 133.951,236.030 134.141,232.310 136.571 L 230.458 137.781 230.458 151.140 C 230.458 166.252,230.365 165.659,232.874 166.663 C 233.936 167.088,234.085 167.260,234.003 167.972 L 233.908 168.792 224.662 168.872 L 215.415 168.951 215.510 167.989 C 215.587 167.197,215.769 166.984,216.531 166.788 C 219.357 166.061,219.430 165.623,219.302 150.024 C 219.191 136.495,219.262 136.884,216.806 136.266 C 214.078 135.579,214.851 134.328,218.905 132.864 C 229.110 129.179,228.720 129.274,229.365 130.308 M274.326 130.008 C 274.607 130.231,274.876 131.097,274.990 132.148 C 275.282 134.820,275.424 134.931,276.993 133.733 C 279.080 132.139,282.560 130.447,284.771 129.950 C 290.018 128.772,295.116 130.197,297.418 133.485 C 299.323 136.205,299.475 137.543,299.475 151.584 C 299.475 165.670,299.460 165.571,301.703 166.563 C 303.256 167.250,303.487 167.520,303.225 168.345 C 303.041 168.924,302.758 168.942,293.903 168.942 L 284.771 168.942 284.771 167.892 C 284.771 167.197,284.912 166.842,285.187 166.842 C 285.985 166.842,287.241 165.987,287.804 165.060 C 288.766 163.479,288.662 138.414,287.687 136.692 C 286.256 134.165,282.717 133.886,278.620 135.977 C 275.472 137.583,275.769 135.990,275.769 151.268 L 275.769 164.708 276.444 165.458 C 276.815 165.871,277.592 166.464,278.170 166.776 C 278.923 167.183,279.220 167.548,279.220 168.068 L 279.220 168.792 269.973 168.872 L 260.727 168.951 260.821 167.971 C 260.892 167.235,261.075 166.969,261.560 166.900 C 261.915 166.849,262.725 166.358,263.360 165.809 L 264.516 164.810 264.516 151.497 C 264.516 136.353,264.584 136.791,262.164 136.312 C 259.273 135.740,260.970 133.551,265.109 132.512 C 265.511 132.411,266.217 132.176,266.678 131.990 C 271.829 129.909,273.619 129.446,274.326 130.008 M163.824 130.362 C 164.095 130.689,164.129 134.026,163.967 144.241 C 163.701 160.994,163.781 162.087,165.386 163.616 C 167.396 165.531,172.767 165.063,176.038 162.689 L 176.725 162.191 176.735 149.259 C 176.745 134.771,176.879 135.646,174.546 134.891 C 173.583 134.580,173.085 133.472,173.652 132.904 C 173.901 132.655,175.824 132.206,180.620 131.277 C 181.844 131.040,183.262 130.720,183.771 130.565 C 188.183 129.222,187.859 127.847,187.934 148.258 L 187.997 165.398 188.897 166.118 C 189.392 166.515,190.031 166.839,190.317 166.840 C 190.853 166.842,191.350 168.072,191.026 168.596 C 190.928 168.755,189.396 168.967,187.622 169.069 C 185.848 169.170,182.939 169.398,181.158 169.575 C 177.500 169.938,177.046 169.790,177.041 168.230 C 177.039 167.714,176.954 166.783,176.851 166.161 L 176.664 165.031 175.729 165.736 C 168.329 171.309,158.897 171.517,154.949 166.192 C 152.819 163.321,152.888 163.886,152.888 149.394 C 152.888 134.682,153.018 135.519,150.618 134.727 C 148.473 134.019,148.972 132.625,151.538 132.158 C 155.312 131.470,160.402 130.487,161.440 130.246 C 163.037 129.875,163.436 129.894,163.824 130.362 " stroke="none" fill="#bb83eb" fill-rule="evenodd"></path><path id="path2" d="M312.078 74.569 C 312.638 75.146,313.163 75.619,313.246 75.619 C 313.329 75.619,312.938 75.146,312.378 74.569 C 311.818 73.991,311.293 73.518,311.210 73.518 C 311.128 73.518,311.518 73.991,312.078 74.569 M315.679 78.170 C 316.239 78.747,316.764 79.220,316.847 79.220 C 316.929 79.220,316.539 78.747,315.979 78.170 C 315.419 77.592,314.894 77.119,314.811 77.119 C 314.728 77.119,315.119 77.592,315.679 78.170 M147.567 105.244 C 148.107 105.311,148.917 105.309,149.368 105.241 C 149.819 105.172,149.377 105.118,148.387 105.119 C 147.397 105.121,147.028 105.177,147.567 105.244 M104.257 122.506 L 103.376 123.481 104.351 122.600 C 104.887 122.115,105.326 121.676,105.326 121.624 C 105.326 121.392,105.079 121.597,104.257 122.506 M187.157 130.545 C 187.355 130.800,187.564 131.947,187.623 133.096 L 187.729 135.184 187.788 133.045 C 187.836 131.318,187.746 130.827,187.322 130.494 C 186.861 130.133,186.841 130.139,187.157 130.545 M163.931 135.934 C 163.931 136.842,163.987 137.213,164.056 136.759 C 164.125 136.305,164.125 135.563,164.056 135.109 C 163.987 134.655,163.931 135.026,163.931 135.934 M176.852 140.135 C 176.852 141.703,176.903 142.344,176.965 141.560 C 177.027 140.776,177.027 139.494,176.965 138.710 C 176.903 137.926,176.852 138.567,176.852 140.135 M134.230 139.835 C 134.230 140.908,134.284 141.347,134.351 140.810 C 134.417 140.274,134.417 139.396,134.351 138.860 C 134.284 138.323,134.230 138.762,134.230 139.835 M243.198 151.088 C 243.198 158.185,243.238 161.045,243.286 157.444 C 243.333 153.843,243.333 148.037,243.285 144.541 C 243.237 141.045,243.198 143.991,243.198 151.088 M109.320 140.585 C 109.322 141.575,109.378 141.944,109.445 141.405 C 109.512 140.866,109.510 140.055,109.442 139.605 C 109.373 139.154,109.319 139.595,109.320 140.585 M219.492 151.388 C 219.492 158.155,219.531 160.966,219.579 157.634 C 219.628 154.303,219.628 148.767,219.580 145.331 C 219.531 141.896,219.492 144.621,219.492 151.388 M254.001 151.388 C 254.000 158.155,254.040 160.966,254.088 157.634 C 254.136 154.303,254.136 148.767,254.088 145.331 C 254.040 141.896,254.001 144.621,254.001 151.388 M97.023 142.686 C 97.024 143.841,97.078 144.277,97.143 143.654 C 97.208 143.032,97.207 142.086,97.141 141.554 C 97.075 141.021,97.021 141.530,97.023 142.686 M163.675 150.938 C 163.675 156.137,163.715 158.263,163.765 155.664 C 163.815 153.065,163.815 148.811,163.765 146.212 C 163.715 143.612,163.675 145.739,163.675 150.938 M109.323 144.636 C 109.323 145.709,109.378 146.148,109.444 145.611 C 109.511 145.075,109.511 144.197,109.444 143.661 C 109.378 143.125,109.323 143.563,109.323 144.636 M134.230 145.536 C 134.230 146.609,134.284 147.048,134.351 146.512 C 134.417 145.975,134.417 145.098,134.351 144.561 C 134.284 144.025,134.230 144.464,134.230 145.536 M344.556 150.038 C 344.556 150.615,344.617 150.851,344.693 150.563 C 344.768 150.274,344.768 149.801,344.693 149.512 C 344.617 149.224,344.556 149.460,344.556 150.038 M133.903 150.638 C 133.903 151.215,133.965 151.452,134.040 151.163 C 134.116 150.874,134.116 150.401,134.040 150.113 C 133.965 149.824,133.903 150.060,133.903 150.638 M152.854 156.339 C 152.854 158.402,152.902 159.246,152.960 158.215 C 153.019 157.183,153.019 155.495,152.960 154.464 C 152.902 153.432,152.854 154.276,152.854 156.339 M120.855 167.659 C 121.392 167.725,122.269 167.725,122.806 167.659 C 123.342 167.592,122.903 167.538,121.830 167.538 C 120.758 167.538,120.319 167.592,120.855 167.659 M212.177 167.963 L 212.153 168.633 203.226 168.717 L 194.299 168.801 203.235 168.872 C 212.583 168.945,212.851 168.910,212.355 167.677 C 212.270 167.465,212.190 167.594,212.177 167.963 M215.555 168.042 L 215.604 168.792 224.606 168.799 L 233.608 168.806 224.701 168.720 L 215.795 168.633 215.650 167.963 C 215.524 167.379,215.512 167.390,215.555 168.042 M302.799 167.963 L 302.776 168.633 293.698 168.717 L 284.621 168.801 293.708 168.872 C 303.215 168.945,303.474 168.912,302.978 167.677 C 302.893 167.465,302.812 167.594,302.799 167.963 M248.612 168.642 L 239.610 168.806 248.519 168.874 C 254.210 168.918,257.496 168.834,257.614 168.642 C 257.716 168.477,257.758 168.373,257.707 168.410 C 257.656 168.448,253.563 168.552,248.612 168.642 M260.962 168.717 C 261.038 168.841,265.068 168.942,269.917 168.942 C 274.767 168.942,278.797 168.841,278.873 168.717 C 278.950 168.593,274.920 168.492,269.917 168.492 C 264.915 168.492,260.885 168.593,260.962 168.717 M141.925 180.270 L 140.285 181.995 142.011 180.355 C 143.613 178.832,143.873 178.545,143.651 178.545 C 143.604 178.545,142.827 179.321,141.925 180.270 M105.401 181.752 C 105.690 181.828,106.163 181.828,106.452 181.752 C 106.740 181.677,106.504 181.615,105.926 181.615 C 105.349 181.615,105.113 181.677,105.401 181.752 M147.567 194.966 C 148.107 195.033,148.917 195.032,149.368 194.963 C 149.819 194.895,149.377 194.840,148.387 194.842 C 147.397 194.843,147.028 194.899,147.567 194.966 M315.510 222.131 L 314.629 223.106 315.604 222.224 C 316.513 221.403,316.717 221.155,316.485 221.155 C 316.434 221.155,315.995 221.594,315.510 222.131 M309.513 223.331 L 308.327 224.606 309.602 223.420 C 310.788 222.317,311.016 222.056,310.789 222.056 C 310.740 222.056,310.166 222.629,309.513 223.331 M312.062 225.581 L 311.028 226.707 312.153 225.673 C 312.772 225.104,313.278 224.597,313.278 224.547 C 313.278 224.318,313.024 224.534,312.062 225.581 " stroke="none" fill="#8c6aa7" fill-rule="evenodd"></path><path id="path3" d="M237.451 46.136 C 239.234 46.189,242.070 46.189,243.752 46.135 C 245.435 46.082,243.976 46.038,240.510 46.038 C 237.044 46.039,235.668 46.082,237.451 46.136 M231.583 46.423 C 231.954 46.495,232.562 46.495,232.933 46.423 C 233.305 46.352,233.001 46.293,232.258 46.293 C 231.515 46.293,231.212 46.352,231.583 46.423 M248.087 46.423 C 248.458 46.495,249.066 46.495,249.437 46.423 C 249.809 46.352,249.505 46.293,248.762 46.293 C 248.020 46.293,247.716 46.352,248.087 46.423 M216.804 48.612 C 216.040 48.941,216.828 48.941,217.854 48.612 C 218.458 48.419,218.487 48.370,218.005 48.363 C 217.674 48.358,217.134 48.470,216.804 48.612 M263.166 48.612 C 264.192 48.941,264.981 48.941,264.216 48.612 C 263.886 48.470,263.346 48.358,263.016 48.363 C 262.533 48.370,262.563 48.419,263.166 48.612 M233.387 49.425 C 233.760 49.496,234.300 49.494,234.587 49.418 C 234.874 49.343,234.569 49.285,233.908 49.288 C 233.248 49.291,233.014 49.353,233.387 49.425 M246.590 49.425 C 246.963 49.496,247.504 49.494,247.790 49.418 C 248.077 49.343,247.772 49.285,247.112 49.288 C 246.452 49.291,246.217 49.353,246.590 49.425 M229.332 49.719 C 229.621 49.795,230.094 49.795,230.383 49.719 C 230.671 49.644,230.435 49.582,229.857 49.582 C 229.280 49.582,229.044 49.644,229.332 49.719 M250.638 49.719 C 250.926 49.795,251.399 49.795,251.688 49.719 C 251.977 49.644,251.740 49.582,251.163 49.582 C 250.585 49.582,250.349 49.644,250.638 49.719 M227.085 50.025 C 227.459 50.096,227.999 50.094,228.286 50.019 C 228.572 49.944,228.267 49.885,227.607 49.888 C 226.947 49.891,226.712 49.953,227.085 50.025 M252.738 50.019 C 253.027 50.095,253.500 50.095,253.788 50.019 C 254.077 49.944,253.841 49.882,253.263 49.882 C 252.686 49.882,252.449 49.944,252.738 50.019 M208.702 50.873 C 207.952 51.235,207.927 51.276,208.552 51.124 C 209.402 50.916,210.358 50.429,209.902 50.435 C 209.737 50.438,209.197 50.635,208.702 50.873 M205.101 52.074 C 204.351 52.435,204.326 52.477,204.951 52.324 C 205.802 52.116,206.757 51.629,206.302 51.636 C 206.137 51.638,205.596 51.835,205.101 52.074 M264.816 52.213 C 265.146 52.355,265.619 52.471,265.866 52.471 C 266.150 52.471,266.095 52.376,265.716 52.213 C 265.386 52.071,264.914 51.955,264.666 51.955 C 264.382 51.955,264.438 52.050,264.816 52.213 M206.902 54.774 C 206.151 55.136,206.126 55.177,206.752 55.024 C 207.602 54.817,208.558 54.330,208.102 54.336 C 207.937 54.339,207.397 54.536,206.902 54.774 M193.773 56.886 C 192.652 57.494,192.720 57.748,193.848 57.164 C 194.344 56.908,194.749 56.635,194.749 56.556 C 194.749 56.363,194.716 56.374,193.773 56.886 M301.575 65.810 C 301.575 65.885,302.071 66.323,302.677 66.786 C 303.283 67.248,303.684 67.473,303.568 67.285 C 303.331 66.901,301.575 65.602,301.575 65.810 M306.977 70.011 C 306.977 70.063,307.416 70.502,307.952 70.987 L 308.927 71.868 308.046 70.893 C 307.224 69.984,306.977 69.780,306.977 70.011 M171.474 72.093 L 170.593 73.068 171.568 72.187 C 172.104 71.702,172.543 71.263,172.543 71.212 C 172.543 70.980,172.296 71.184,171.474 72.093 M310.428 73.218 C 311.072 73.878,311.667 74.419,311.750 74.419 C 311.832 74.419,311.372 73.878,310.728 73.218 C 310.083 72.558,309.488 72.018,309.406 72.018 C 309.323 72.018,309.783 72.558,310.428 73.218 M173.727 74.344 L 172.693 75.469 173.818 74.435 C 174.866 73.472,175.082 73.218,174.853 73.218 C 174.802 73.218,174.296 73.725,173.727 74.344 M306.677 73.912 C 306.677 73.964,307.116 74.403,307.652 74.888 L 308.627 75.769 307.746 74.794 C 306.924 73.885,306.677 73.681,306.677 73.912 M166.542 76.669 C 165.312 77.907,164.374 78.920,164.456 78.920 C 164.539 78.920,165.612 77.907,166.842 76.669 C 168.071 75.431,169.010 74.419,168.927 74.419 C 168.845 74.419,167.771 75.431,166.542 76.669 M168.937 78.845 L 165.791 82.071 169.017 78.925 C 170.791 77.195,172.243 75.743,172.243 75.699 C 172.243 75.483,171.858 75.849,168.937 78.845 M317.167 79.895 C 318.410 81.220,318.680 81.458,318.680 81.233 C 318.680 81.185,318.038 80.543,317.254 79.807 L 315.829 78.470 317.167 79.895 M314.779 82.014 C 314.779 82.066,315.218 82.505,315.754 82.990 L 316.729 83.871 315.848 82.896 C 315.026 81.987,314.779 81.783,314.779 82.014 M160.671 83.196 L 159.790 84.171 160.765 83.290 C 161.302 82.805,161.740 82.366,161.740 82.314 C 161.740 82.083,161.493 82.287,160.671 83.196 M164.425 83.646 L 163.391 84.771 164.516 83.737 C 165.564 82.775,165.779 82.521,165.550 82.521 C 165.500 82.521,164.994 83.027,164.425 83.646 M158.098 86.347 C 157.234 87.389,156.869 87.922,157.017 87.922 C 157.100 87.922,157.529 87.449,157.969 86.872 C 158.787 85.800,158.886 85.395,158.098 86.347 M333.233 103.226 C 333.489 103.721,333.766 104.126,333.849 104.126 C 333.931 104.126,333.789 103.721,333.533 103.226 C 333.277 102.731,333.000 102.326,332.918 102.326 C 332.835 102.326,332.977 102.731,333.233 103.226 M331.604 106.977 C 331.604 107.142,331.797 107.614,332.033 108.027 C 332.269 108.440,332.462 108.642,332.462 108.477 C 332.462 108.312,332.269 107.839,332.033 107.427 C 331.797 107.014,331.604 106.812,331.604 106.977 M334.334 113.444 C 334.509 113.947,334.709 114.304,334.777 114.235 C 334.925 114.087,334.359 112.528,334.157 112.528 C 334.079 112.528,334.158 112.940,334.334 113.444 M129.932 116.679 C 130.180 116.832,130.720 117.047,131.133 117.157 C 131.654 117.297,131.746 117.273,131.433 117.080 C 131.185 116.927,130.645 116.711,130.233 116.601 C 129.711 116.462,129.620 116.485,129.932 116.679 M197.440 117.046 C 197.259 117.385,197.155 117.796,197.209 117.959 C 197.264 118.122,197.463 117.845,197.653 117.342 C 198.047 116.298,197.929 116.133,197.440 117.046 M125.431 118.030 C 125.431 118.107,125.867 118.323,126.400 118.508 C 126.932 118.694,127.236 118.722,127.075 118.572 C 126.733 118.252,125.431 117.823,125.431 118.030 M209.238 119.580 C 209.240 120.405,209.299 120.707,209.368 120.251 C 209.437 119.795,209.435 119.120,209.364 118.751 C 209.292 118.381,209.236 118.755,209.238 119.580 M138.935 122.281 C 139.495 122.858,140.020 123.331,140.103 123.331 C 140.185 123.331,139.795 122.858,139.235 122.281 C 138.675 121.703,138.149 121.230,138.067 121.230 C 137.984 121.230,138.375 121.703,138.935 122.281 M207.951 123.106 C 207.509 123.709,207.437 123.919,207.761 123.656 C 208.253 123.256,208.997 122.131,208.769 122.131 C 208.712 122.131,208.344 122.569,207.951 123.106 M198.500 123.282 C 198.995 123.832,199.670 124.423,200.000 124.594 C 200.330 124.765,200.465 124.786,200.300 124.642 C 200.135 124.498,199.460 123.907,198.800 123.330 L 197.601 122.281 198.500 123.282 M141.035 124.831 C 141.388 125.326,141.744 125.731,141.826 125.731 C 141.909 125.731,141.688 125.326,141.335 124.831 C 140.983 124.336,140.627 123.931,140.544 123.931 C 140.462 123.931,140.683 124.336,141.035 124.831 M202.626 125.338 C 202.914 125.414,203.387 125.414,203.676 125.338 C 203.965 125.263,203.728 125.201,203.151 125.201 C 202.573 125.201,202.337 125.263,202.626 125.338 M338.836 128.132 C 338.851 128.912,339.323 130.192,339.334 129.482 C 339.339 129.152,339.227 128.612,339.085 128.282 C 338.927 127.914,338.830 127.856,338.836 128.132 M109.897 130.533 C 109.897 131.110,109.959 131.347,110.034 131.058 C 110.110 130.769,110.110 130.296,110.034 130.008 C 109.959 129.719,109.897 129.955,109.897 130.533 M242.079 129.849 C 242.612 129.915,243.557 129.916,244.179 129.851 C 244.802 129.786,244.366 129.732,243.211 129.731 C 242.056 129.730,241.546 129.783,242.079 129.849 M287.390 129.849 C 287.923 129.915,288.868 129.916,289.491 129.851 C 290.113 129.786,289.677 129.732,288.522 129.731 C 287.367 129.730,286.857 129.783,287.390 129.849 M245.786 130.040 C 245.855 130.100,246.317 130.239,246.812 130.349 C 247.469 130.497,247.591 130.469,247.262 130.246 C 246.857 129.972,245.485 129.781,245.786 130.040 M274.161 130.233 C 274.291 130.480,274.487 131.223,274.596 131.883 L 274.794 133.083 274.831 132.015 C 274.852 131.428,274.656 130.685,274.396 130.365 C 274.137 130.045,274.031 129.985,274.161 130.233 M284.321 130.247 C 283.903 130.436,284.085 130.463,284.921 130.336 C 285.581 130.235,286.178 130.103,286.247 130.043 C 286.504 129.815,284.897 129.986,284.321 130.247 M162.791 130.495 C 163.655 130.678,163.698 130.764,163.864 132.635 L 164.037 134.584 164.089 132.768 C 164.147 130.758,163.834 130.213,162.656 130.268 C 161.946 130.301,161.956 130.317,162.791 130.495 M133.909 132.783 C 133.912 133.443,133.974 133.678,134.046 133.305 C 134.117 132.932,134.115 132.391,134.040 132.105 C 133.965 131.818,133.906 132.123,133.909 132.783 M251.010 132.634 C 252.433 134.297,252.453 134.315,252.127 133.683 C 251.957 133.353,251.434 132.746,250.965 132.334 L 250.113 131.585 251.010 132.634 M149.937 132.833 C 149.645 133.125,149.693 134.071,150.010 134.266 C 150.159 134.359,150.207 134.150,150.117 133.803 C 150.020 133.433,150.124 133.062,150.370 132.907 C 150.600 132.761,150.641 132.640,150.463 132.638 C 150.284 132.635,150.048 132.723,149.937 132.833 M262.416 133.694 C 261.665 134.055,261.640 134.097,262.266 133.944 C 263.116 133.736,264.072 133.249,263.616 133.256 C 263.451 133.258,262.911 133.455,262.416 133.694 M274.910 134.341 C 274.855 135.211,275.421 135.526,275.949 134.920 C 276.181 134.654,276.209 134.570,276.010 134.735 C 275.457 135.192,275.223 135.097,275.080 134.359 C 274.950 133.684,274.950 133.684,274.910 134.341 M240.985 134.809 C 241.054 134.850,241.515 135.221,242.011 135.634 L 242.911 136.384 242.183 135.559 C 241.783 135.105,241.322 134.734,241.158 134.734 C 240.994 134.734,240.916 134.767,240.985 134.809 M208.691 149.737 C 208.691 157.907,208.730 161.249,208.777 157.164 C 208.824 153.080,208.824 146.395,208.777 142.311 C 208.730 138.226,208.691 141.568,208.691 149.737 M134.215 136.834 C 134.215 137.577,134.274 137.881,134.345 137.509 C 134.417 137.138,134.417 136.530,134.345 136.159 C 134.274 135.788,134.215 136.092,134.215 136.834 M340.355 136.534 C 340.355 137.112,340.416 137.348,340.492 137.059 C 340.567 136.770,340.567 136.298,340.492 136.009 C 340.416 135.720,340.355 135.956,340.355 136.534 M145.906 136.834 C 145.906 137.412,145.968 137.648,146.043 137.359 C 146.119 137.071,146.119 136.598,146.043 136.309 C 145.968 136.020,145.906 136.257,145.906 136.834 M217.279 136.025 C 217.348 136.075,217.809 136.353,218.305 136.643 L 219.205 137.170 218.496 136.552 C 218.107 136.212,217.645 135.934,217.471 135.934 C 217.297 135.934,217.211 135.975,217.279 136.025 M109.313 137.584 C 109.315 138.410,109.374 138.712,109.443 138.255 C 109.512 137.799,109.510 137.124,109.439 136.755 C 109.367 136.386,109.311 136.759,109.313 137.584 M153.173 146.287 C 153.172 151.733,153.213 154.003,153.263 151.332 C 153.312 148.660,153.312 144.204,153.263 141.429 C 153.213 138.654,153.173 140.840,153.173 146.287 M242.944 137.284 C 243.191 138.388,243.362 138.627,243.356 137.859 C 243.354 137.543,243.215 137.082,243.047 136.834 C 242.825 136.505,242.797 136.627,242.944 137.284 M163.646 139.235 C 163.646 140.638,163.697 141.212,163.761 140.510 C 163.824 139.809,163.824 138.661,163.761 137.959 C 163.697 137.258,163.646 137.832,163.646 139.235 M275.662 137.387 C 275.209 137.887,275.170 139.160,275.244 150.965 L 275.325 163.991 275.397 150.961 C 275.461 139.322,275.522 137.873,275.965 137.383 C 276.239 137.081,276.395 136.834,276.312 136.834 C 276.230 136.834,275.937 137.083,275.662 137.387 M230.191 137.544 C 229.946 137.839,229.874 141.606,229.933 150.972 L 230.014 163.991 230.086 150.923 C 230.139 141.241,230.251 137.761,230.518 137.494 C 230.716 137.296,230.800 137.134,230.704 137.134 C 230.609 137.134,230.378 137.319,230.191 137.544 M264.516 151.388 C 264.516 158.866,264.615 164.828,264.737 164.638 C 264.858 164.447,264.957 158.485,264.957 151.388 C 264.957 144.291,264.858 138.329,264.737 138.138 C 264.615 137.948,264.516 143.910,264.516 151.388 M288.510 151.238 C 288.510 158.582,288.549 161.587,288.597 157.914 C 288.645 154.242,288.645 148.233,288.597 144.561 C 288.549 140.889,288.510 143.893,288.510 151.238 M343.968 140.735 C 343.968 141.478,344.026 141.782,344.098 141.410 C 344.169 141.039,344.169 140.431,344.098 140.060 C 344.026 139.689,343.968 139.992,343.968 140.735 M187.383 152.138 C 187.383 158.327,187.423 160.859,187.471 157.764 C 187.520 154.670,187.520 149.606,187.471 146.512 C 187.423 143.417,187.383 145.949,187.383 152.138 M340.955 142.236 C 340.955 142.813,341.017 143.050,341.092 142.761 C 341.168 142.472,341.168 141.999,341.092 141.710 C 341.017 141.422,340.955 141.658,340.955 142.236 M344.291 144.936 C 344.291 146.339,344.343 146.913,344.406 146.212 C 344.469 145.510,344.469 144.362,344.406 143.661 C 344.343 142.959,344.291 143.533,344.291 144.936 M176.878 152.438 C 176.878 157.802,176.919 159.996,176.969 157.314 C 177.018 154.632,177.018 150.244,176.969 147.562 C 176.919 144.880,176.878 147.074,176.878 152.438 M198.184 153.188 C 198.184 158.800,198.225 161.053,198.274 158.195 C 198.324 155.338,198.323 150.747,198.274 147.993 C 198.224 145.239,198.184 147.577,198.184 153.188 M146.206 146.437 C 146.206 147.014,146.268 147.251,146.343 146.962 C 146.419 146.673,146.419 146.200,146.343 145.911 C 146.268 145.623,146.206 145.859,146.206 146.437 M109.309 147.637 C 109.309 148.380,109.368 148.683,109.439 148.312 C 109.511 147.941,109.511 147.333,109.439 146.962 C 109.368 146.590,109.309 146.894,109.309 147.637 M134.215 148.537 C 134.215 149.280,134.274 149.584,134.345 149.212 C 134.417 148.841,134.417 148.233,134.345 147.862 C 134.274 147.491,134.215 147.794,134.215 148.537 M341.293 150.038 C 341.293 151.605,341.344 152.247,341.406 151.463 C 341.468 150.679,341.468 149.396,341.406 148.612 C 341.344 147.828,341.293 148.470,341.293 150.038 M133.903 152.438 C 133.903 153.016,133.965 153.252,134.040 152.963 C 134.116 152.674,134.116 152.202,134.040 151.913 C 133.965 151.624,133.903 151.860,133.903 152.438 M344.291 155.139 C 344.291 156.542,344.343 157.116,344.406 156.414 C 344.469 155.713,344.469 154.565,344.406 153.863 C 344.343 153.162,344.291 153.736,344.291 155.139 M109.897 154.539 C 109.897 155.116,109.959 155.353,110.034 155.064 C 110.110 154.775,110.110 154.302,110.034 154.014 C 109.959 153.725,109.897 153.961,109.897 154.539 M100.075 156.939 C 100.331 157.434,100.608 157.839,100.691 157.839 C 100.773 157.839,100.631 157.434,100.375 156.939 C 100.119 156.444,99.842 156.039,99.760 156.039 C 99.677 156.039,99.819 156.444,100.075 156.939 M343.968 159.340 C 343.968 160.083,344.026 160.386,344.098 160.015 C 344.169 159.644,344.169 159.036,344.098 158.665 C 344.026 158.293,343.968 158.597,343.968 159.340 M153.124 160.090 C 153.126 160.915,153.185 161.217,153.254 160.761 C 153.323 160.305,153.321 159.630,153.249 159.261 C 153.178 158.892,153.122 159.265,153.124 160.090 M102.261 160.393 C 102.431 160.725,102.886 161.265,103.273 161.592 C 103.951 162.165,103.950 162.155,103.230 161.288 C 102.035 159.849,101.935 159.756,102.261 160.393 M138.773 163.016 L 137.284 164.591 138.860 163.102 C 139.726 162.283,140.435 161.574,140.435 161.527 C 140.435 161.303,140.157 161.552,138.773 163.016 M163.850 162.261 C 163.845 162.465,164.212 163.011,164.666 163.476 C 165.120 163.940,165.274 164.043,165.007 163.705 C 164.741 163.367,164.374 162.821,164.191 162.491 C 164.009 162.161,163.855 162.057,163.850 162.261 M340.355 163.541 C 340.355 164.119,340.416 164.355,340.492 164.066 C 340.567 163.777,340.567 163.305,340.492 163.016 C 340.416 162.727,340.355 162.963,340.355 163.541 M113.878 164.700 C 114.539 165.409,115.349 166.132,115.679 166.306 C 116.009 166.480,116.212 166.562,116.129 166.487 C 113.206 163.834,112.693 163.427,113.878 164.700 M253.889 164.009 C 253.875 164.348,254.076 164.889,254.336 165.209 C 254.596 165.529,254.716 165.612,254.604 165.393 C 254.491 165.174,254.290 164.633,254.157 164.193 C 253.963 163.549,253.910 163.513,253.889 164.009 M197.216 165.579 L 196.533 166.692 197.291 165.850 C 197.708 165.387,198.050 164.880,198.050 164.724 C 198.050 164.283,197.948 164.387,197.216 165.579 M168.267 165.258 C 168.803 165.325,169.681 165.325,170.218 165.258 C 170.754 165.192,170.315 165.137,169.242 165.137 C 168.170 165.137,167.731 165.192,168.267 165.258 M194.524 167.040 C 194.317 167.124,194.164 167.552,194.183 167.992 C 194.210 168.608,194.250 168.654,194.359 168.192 C 194.436 167.862,194.716 167.423,194.981 167.217 C 195.463 166.842,195.233 166.754,194.524 167.040 M278.245 167.166 C 278.533 167.334,278.780 167.701,278.793 167.982 C 278.809 168.310,278.872 168.355,278.972 168.107 C 279.151 167.660,278.553 166.837,278.058 166.851 C 277.872 166.856,277.956 166.998,278.245 167.166 M118.380 167.442 C 118.710 167.584,119.250 167.696,119.580 167.691 C 120.062 167.684,120.033 167.635,119.430 167.442 C 118.404 167.113,117.615 167.113,118.380 167.442 M188.447 168.642 L 186.197 168.834 188.354 168.888 C 189.541 168.918,190.596 168.807,190.698 168.642 C 190.800 168.477,190.841 168.366,190.790 168.396 C 190.739 168.426,189.685 168.537,188.447 168.642 M183.574 169.154 C 183.948 169.226,184.488 169.224,184.775 169.148 C 185.062 169.073,184.756 169.015,184.096 169.018 C 183.436 169.021,183.201 169.083,183.574 169.154 M178.020 169.449 C 178.308 169.525,178.781 169.525,179.070 169.449 C 179.359 169.374,179.122 169.312,178.545 169.312 C 177.967 169.312,177.731 169.374,178.020 169.449 M162.859 169.759 C 163.392 169.825,164.337 169.826,164.960 169.761 C 165.582 169.696,165.146 169.642,163.991 169.641 C 162.836 169.640,162.326 169.693,162.859 169.759 M120.555 170.062 C 121.257 170.125,122.404 170.125,123.106 170.062 C 123.807 169.999,123.233 169.947,121.830 169.947 C 120.428 169.947,119.854 169.999,120.555 170.062 M338.972 171.080 C 338.722 172.331,338.965 172.573,339.235 171.343 C 339.349 170.824,339.379 170.337,339.303 170.261 C 339.227 170.184,339.078 170.553,338.972 171.080 M109.827 171.943 C 109.475 172.438,109.254 172.843,109.336 172.843 C 109.419 172.843,109.775 172.438,110.128 171.943 C 110.480 171.448,110.701 171.043,110.619 171.043 C 110.536 171.043,110.180 171.448,109.827 171.943 M112.528 174.330 C 112.776 174.497,113.237 174.637,113.553 174.639 C 114.321 174.645,114.082 174.473,112.978 174.227 C 112.321 174.080,112.199 174.107,112.528 174.330 M118.830 175.844 C 119.856 176.173,120.645 176.173,119.880 175.844 C 119.550 175.702,119.010 175.590,118.680 175.595 C 118.197 175.602,118.227 175.651,118.830 175.844 M123.181 176.744 C 123.511 176.886,124.051 176.998,124.381 176.993 C 124.864 176.986,124.834 176.937,124.231 176.744 C 123.205 176.416,122.416 176.416,123.181 176.744 M136.309 179.352 C 136.598 179.427,137.071 179.427,137.359 179.352 C 137.648 179.276,137.412 179.214,136.834 179.214 C 136.257 179.214,136.020 179.276,136.309 179.352 M335.517 183.379 C 335.332 183.909,335.234 184.396,335.298 184.460 C 335.362 184.524,335.566 184.143,335.751 183.613 C 335.935 183.082,336.034 182.596,335.970 182.532 C 335.906 182.467,335.702 182.849,335.517 183.379 M135.634 185.446 C 135.056 185.763,134.692 186.027,134.824 186.034 C 135.142 186.051,136.834 185.171,136.834 184.989 C 136.834 184.792,136.817 184.799,135.634 185.446 M334.334 186.631 C 334.158 187.135,334.079 187.547,334.157 187.547 C 334.359 187.547,334.925 185.988,334.777 185.840 C 334.709 185.771,334.509 186.128,334.334 186.631 M130.308 186.253 C 130.596 186.329,131.069 186.329,131.358 186.253 C 131.647 186.178,131.410 186.116,130.833 186.116 C 130.255 186.116,130.019 186.178,130.308 186.253 M331.932 192.211 C 331.429 193.314,331.525 193.550,332.069 192.547 C 332.322 192.078,332.474 191.639,332.405 191.570 C 332.337 191.501,332.124 191.790,331.932 192.211 M333.233 196.849 C 332.977 197.344,332.835 197.749,332.918 197.749 C 333.000 197.749,333.277 197.344,333.533 196.849 C 333.789 196.354,333.931 195.949,333.849 195.949 C 333.766 195.949,333.489 196.354,333.233 196.849 M323.781 212.153 C 323.428 212.648,323.207 213.053,323.290 213.053 C 323.372 213.053,323.728 212.648,324.081 212.153 C 324.434 211.658,324.655 211.253,324.572 211.253 C 324.489 211.253,324.134 211.658,323.781 212.153 M157.533 213.044 C 157.882 213.534,158.321 214.030,158.508 214.146 C 158.695 214.262,158.470 213.861,158.008 213.255 C 157.005 211.940,156.627 211.772,157.533 213.044 M164.441 216.504 C 165.001 217.082,165.527 217.554,165.609 217.554 C 165.692 217.554,165.301 217.082,164.741 216.504 C 164.181 215.926,163.656 215.454,163.573 215.454 C 163.491 215.454,163.881 215.926,164.441 216.504 M159.940 216.148 C 159.940 216.200,160.379 216.638,160.915 217.123 L 161.890 218.005 161.009 217.029 C 160.188 216.120,159.940 215.916,159.940 216.148 M315.510 217.329 L 314.629 218.305 315.604 217.423 C 316.513 216.602,316.717 216.354,316.485 216.354 C 316.434 216.354,315.995 216.793,315.510 217.329 M168.937 221.230 C 171.858 224.227,172.243 224.592,172.243 224.376 C 172.243 224.332,170.791 222.880,169.017 221.150 L 165.791 218.005 168.937 221.230 M316.879 220.405 C 316.150 221.148,315.621 221.755,315.704 221.755 C 315.787 221.755,316.450 221.148,317.179 220.405 C 317.908 219.662,318.437 219.055,318.355 219.055 C 318.272 219.055,317.608 219.662,316.879 220.405 M166.692 223.556 C 167.838 224.711,168.844 225.656,168.926 225.656 C 169.009 225.656,168.138 224.711,166.992 223.556 C 165.845 222.401,164.840 221.455,164.757 221.455 C 164.675 221.455,165.545 222.401,166.692 223.556 M307.408 225.431 L 306.527 226.407 307.502 225.525 C 308.411 224.704,308.615 224.456,308.383 224.456 C 308.332 224.456,307.893 224.895,307.408 225.431 M173.743 225.806 C 174.303 226.384,174.829 226.857,174.911 226.857 C 174.994 226.857,174.603 226.384,174.044 225.806 C 173.484 225.229,172.958 224.756,172.876 224.756 C 172.793 224.756,173.184 225.229,173.743 225.806 M310.578 226.707 C 309.849 227.449,309.320 228.057,309.402 228.057 C 309.485 228.057,310.149 227.449,310.878 226.707 C 311.607 225.964,312.135 225.356,312.053 225.356 C 311.970 225.356,311.307 225.964,310.578 226.707 M170.743 227.251 C 170.743 227.302,171.182 227.741,171.718 228.226 L 172.693 229.107 171.812 228.132 C 170.990 227.223,170.743 227.019,170.743 227.251 M287.097 239.331 C 285.975 239.940,286.043 240.193,287.172 239.610 C 287.667 239.354,288.072 239.080,288.072 239.002 C 288.072 238.809,288.040 238.820,287.097 239.331 M198.050 241.710 C 198.462 241.946,198.935 242.139,199.100 242.139 C 199.265 242.139,199.062 241.946,198.650 241.710 C 198.237 241.475,197.764 241.282,197.599 241.282 C 197.434 241.282,197.637 241.475,198.050 241.710 M192.948 242.595 C 192.948 242.678,193.353 242.955,193.848 243.211 C 194.344 243.467,194.749 243.609,194.749 243.526 C 194.749 243.444,194.344 243.167,193.848 242.911 C 193.353 242.655,192.948 242.513,192.948 242.595 M206.452 245.111 C 206.699 245.264,207.239 245.479,207.652 245.589 C 208.173 245.729,208.265 245.705,207.952 245.512 C 207.704 245.359,207.164 245.144,206.752 245.033 C 206.230 244.894,206.139 244.917,206.452 245.111 M204.651 247.811 C 204.899 247.964,205.439 248.180,205.851 248.290 C 206.373 248.430,206.464 248.406,206.152 248.213 C 205.904 248.060,205.364 247.844,204.951 247.734 C 204.430 247.594,204.338 247.618,204.651 247.811 M264.816 247.862 C 264.438 248.025,264.382 248.120,264.666 248.120 C 264.914 248.120,265.386 248.004,265.716 247.862 C 266.095 247.699,266.150 247.604,265.866 247.604 C 265.619 247.604,265.146 247.720,264.816 247.862 M208.252 249.012 C 208.500 249.165,209.040 249.380,209.452 249.490 C 209.974 249.630,210.065 249.606,209.752 249.413 C 209.505 249.260,208.965 249.045,208.552 248.934 C 208.031 248.795,207.939 248.818,208.252 249.012 M259.265 249.062 C 258.256 249.385,259.346 249.385,260.615 249.062 C 261.424 248.857,261.439 248.833,260.765 248.828 C 260.353 248.825,259.677 248.930,259.265 249.062 M227.085 250.175 C 227.459 250.246,227.999 250.244,228.286 250.169 C 228.572 250.094,228.267 250.035,227.607 250.038 C 226.947 250.041,226.712 250.103,227.085 250.175 M252.738 250.169 C 253.027 250.245,253.500 250.245,253.788 250.169 C 254.077 250.094,253.841 250.032,253.263 250.032 C 252.686 250.032,252.449 250.094,252.738 250.169 M229.486 250.475 C 229.859 250.547,230.399 250.544,230.686 250.469 C 230.973 250.394,230.668 250.335,230.008 250.338 C 229.347 250.342,229.113 250.403,229.486 250.475 M250.338 250.469 C 250.626 250.545,251.099 250.545,251.388 250.469 C 251.677 250.394,251.440 250.332,250.863 250.332 C 250.285 250.332,250.049 250.394,250.338 250.469 M233.387 250.775 C 233.760 250.847,234.300 250.844,234.587 250.769 C 234.874 250.694,234.569 250.635,233.908 250.638 C 233.248 250.642,233.014 250.703,233.387 250.775 M246.590 250.775 C 246.963 250.847,247.504 250.844,247.790 250.769 C 248.077 250.694,247.772 250.635,247.112 250.638 C 246.452 250.642,246.217 250.703,246.590 250.775 M216.804 251.463 C 217.134 251.605,217.674 251.717,218.005 251.712 C 218.487 251.705,218.458 251.656,217.854 251.463 C 216.828 251.134,216.040 251.134,216.804 251.463 M231.583 253.775 C 231.954 253.847,232.562 253.847,232.933 253.775 C 233.305 253.704,233.001 253.645,232.258 253.645 C 231.515 253.645,231.212 253.704,231.583 253.775 M248.087 253.775 C 248.458 253.847,249.066 253.847,249.437 253.775 C 249.809 253.704,249.505 253.645,248.762 253.645 C 248.020 253.645,247.716 253.704,248.087 253.775 M237.451 254.088 C 239.234 254.141,242.070 254.140,243.752 254.087 C 245.435 254.034,243.976 253.990,240.510 253.990 C 237.044 253.991,235.668 254.034,237.451 254.088 " stroke="none" fill="#7c6494" fill-rule="evenodd"></path><path id="path4" d="M228.432 46.418 C 228.721 46.494,229.194 46.494,229.482 46.418 C 229.771 46.343,229.535 46.281,228.957 46.281 C 228.380 46.281,228.143 46.343,228.432 46.418 M251.538 46.418 C 251.827 46.494,252.299 46.494,252.588 46.418 C 252.877 46.343,252.641 46.281,252.063 46.281 C 251.485 46.281,251.249 46.343,251.538 46.418 M219.805 47.712 C 219.040 48.041,219.829 48.041,220.855 47.712 C 221.458 47.519,221.488 47.470,221.005 47.463 C 220.675 47.458,220.135 47.570,219.805 47.712 M259.590 47.520 C 259.659 47.579,260.120 47.718,260.615 47.829 C 261.273 47.976,261.394 47.948,261.065 47.726 C 260.660 47.451,259.289 47.260,259.590 47.520 M238.348 49.436 C 239.635 49.492,241.660 49.492,242.849 49.435 C 244.038 49.378,242.986 49.332,240.510 49.332 C 238.035 49.333,237.062 49.379,238.348 49.436 M232.783 49.729 C 233.320 49.796,234.197 49.796,234.734 49.729 C 235.270 49.663,234.831 49.608,233.758 49.608 C 232.686 49.608,232.247 49.663,232.783 49.729 M246.437 49.727 C 246.890 49.796,247.633 49.796,248.087 49.727 C 248.541 49.659,248.170 49.602,247.262 49.602 C 246.354 49.602,245.983 49.659,246.437 49.727 M197.749 54.764 C 197.337 55.000,197.134 55.193,197.299 55.193 C 197.464 55.193,197.937 55.000,198.350 54.764 C 198.762 54.528,198.965 54.335,198.800 54.335 C 198.635 54.335,198.162 54.528,197.749 54.764 M166.385 76.594 L 163.691 79.370 166.467 76.675 C 169.045 74.173,169.379 73.818,169.161 73.818 C 169.116 73.818,167.867 75.068,166.385 76.594 M307.877 75.469 C 308.437 76.047,308.962 76.519,309.045 76.519 C 309.127 76.519,308.737 76.047,308.177 75.469 C 307.617 74.891,307.092 74.419,307.009 74.419 C 306.927 74.419,307.317 74.891,307.877 75.469 M169.085 78.995 L 166.692 81.470 169.167 79.077 C 170.529 77.760,171.643 76.646,171.643 76.601 C 171.643 76.382,171.308 76.695,169.085 78.995 M317.779 80.270 C 318.339 80.848,318.865 81.320,318.947 81.320 C 319.030 81.320,318.639 80.848,318.080 80.270 C 317.520 79.692,316.994 79.220,316.912 79.220 C 316.829 79.220,317.220 79.692,317.779 80.270 M162.172 81.095 L 161.290 82.071 162.266 81.189 C 162.802 80.704,163.241 80.266,163.241 80.214 C 163.241 79.982,162.993 80.186,162.172 81.095 M314.629 82.221 C 315.273 82.881,315.868 83.421,315.951 83.421 C 316.033 83.421,315.573 82.881,314.929 82.221 C 314.284 81.560,313.689 81.020,313.607 81.020 C 313.524 81.020,313.984 81.560,314.629 82.221 M201.800 113.579 C 202.488 113.817,205.547 113.911,205.189 113.684 C 204.976 113.548,204.059 113.446,203.151 113.457 C 202.243 113.467,201.635 113.522,201.800 113.579 M121.155 115.141 C 121.527 115.212,122.134 115.212,122.506 115.141 C 122.877 115.069,122.573 115.010,121.830 115.010 C 121.088 115.010,120.784 115.069,121.155 115.141 M121.005 117.844 C 121.459 117.913,122.202 117.913,122.656 117.844 C 123.110 117.776,122.738 117.719,121.830 117.719 C 120.923 117.719,120.551 117.776,121.005 117.844 M209.538 119.580 C 209.540 120.405,209.599 120.707,209.668 120.251 C 209.737 119.795,209.735 119.120,209.664 118.751 C 209.592 118.381,209.536 118.755,209.538 119.580 M207.783 123.706 L 206.902 124.681 207.877 123.800 C 208.413 123.315,208.852 122.876,208.852 122.825 C 208.852 122.593,208.605 122.797,207.783 123.706 M338.189 126.507 C 338.192 126.823,338.331 127.284,338.498 127.532 C 338.721 127.861,338.749 127.739,338.602 127.082 C 338.355 125.978,338.183 125.739,338.189 126.507 M132.684 127.232 C 132.699 128.011,133.172 129.292,133.182 128.582 C 133.187 128.252,133.075 127.712,132.933 127.382 C 132.775 127.014,132.679 126.956,132.684 127.232 M342.437 128.732 C 342.452 129.512,342.924 130.793,342.935 130.083 C 342.940 129.752,342.828 129.212,342.686 128.882 C 342.528 128.515,342.431 128.456,342.437 128.732 M162.791 130.150 C 163.121 130.231,163.593 130.451,163.841 130.640 C 164.232 130.938,164.237 130.914,163.879 130.458 C 163.653 130.169,163.180 129.948,162.829 129.967 C 162.223 130.000,162.221 130.010,162.791 130.150 M183.796 130.533 C 183.031 130.861,183.820 130.861,184.846 130.533 C 185.449 130.339,185.479 130.291,184.996 130.284 C 184.666 130.279,184.126 130.391,183.796 130.533 M208.942 132.033 C 208.942 132.941,208.998 133.312,209.067 132.858 C 209.136 132.404,209.136 131.662,209.067 131.208 C 208.998 130.754,208.942 131.125,208.942 132.033 M229.633 131.883 C 229.636 132.543,229.698 132.778,229.770 132.405 C 229.841 132.031,229.839 131.491,229.764 131.204 C 229.688 130.917,229.630 131.223,229.633 131.883 M178.245 131.747 C 177.916 131.969,178.037 131.997,178.695 131.850 C 179.798 131.603,180.038 131.431,179.270 131.437 C 178.953 131.440,178.492 131.579,178.245 131.747 M250.263 131.527 C 250.263 131.578,250.701 132.017,251.238 132.502 L 252.213 133.383 251.332 132.408 C 250.510 131.499,250.263 131.295,250.263 131.527 M97.996 133.105 C 97.886 133.544,97.853 133.962,97.924 134.033 C 97.995 134.104,98.143 133.802,98.253 133.362 C 98.364 132.922,98.396 132.504,98.325 132.434 C 98.254 132.363,98.106 132.665,97.996 133.105 M149.554 132.761 C 149.464 132.997,149.450 133.503,149.523 133.887 C 149.626 134.430,149.665 134.373,149.697 133.630 C 149.724 132.998,149.914 132.631,150.263 132.540 C 150.755 132.411,150.754 132.401,150.253 132.368 C 149.959 132.349,149.645 132.526,149.554 132.761 M229.857 133.966 C 229.857 134.369,229.968 134.767,230.103 134.850 C 230.238 134.934,230.291 134.604,230.219 134.118 C 230.062 133.045,229.857 132.959,229.857 133.966 M194.049 134.034 C 193.407 134.675,194.119 136.252,195.034 136.215 C 195.319 136.203,195.238 136.091,194.824 135.925 C 194.083 135.627,193.871 134.295,194.524 134.032 C 194.733 133.948,194.755 133.870,194.574 133.857 C 194.395 133.844,194.159 133.923,194.049 134.034 M109.634 136.984 C 109.633 138.470,109.684 139.115,109.747 138.419 C 109.810 137.722,109.810 136.507,109.748 135.718 C 109.686 134.929,109.635 135.499,109.634 136.984 M187.686 149.737 C 187.686 157.907,187.725 161.249,187.772 157.164 C 187.819 153.080,187.819 146.395,187.772 142.311 C 187.725 138.226,187.686 141.568,187.686 149.737 M133.930 137.134 C 133.930 138.207,133.984 138.646,134.051 138.110 C 134.117 137.573,134.117 136.695,134.051 136.159 C 133.984 135.623,133.930 136.062,133.930 137.134 M275.962 137.386 C 275.509 137.887,275.470 139.171,275.544 151.115 L 275.625 164.291 275.697 151.111 C 275.761 139.332,275.822 137.873,276.266 137.383 C 276.539 137.081,276.695 136.834,276.612 136.834 C 276.530 136.834,276.237 137.083,275.962 137.386 M343.956 137.734 C 343.956 138.312,344.017 138.548,344.093 138.260 C 344.168 137.971,344.168 137.498,344.093 137.209 C 344.017 136.920,343.956 137.157,343.956 137.734 M163.944 139.685 C 163.945 141.005,163.998 141.508,164.061 140.802 C 164.124 140.096,164.124 139.016,164.059 138.402 C 163.995 137.787,163.943 138.365,163.944 139.685 M97.010 139.385 C 97.012 140.210,97.071 140.512,97.140 140.056 C 97.209 139.600,97.207 138.925,97.135 138.556 C 97.064 138.186,97.008 138.560,97.010 139.385 M230.295 150.638 C 230.295 157.487,230.334 160.289,230.382 156.864 C 230.430 153.440,230.430 147.836,230.382 144.411 C 230.334 140.986,230.295 143.788,230.295 150.638 M197.887 151.388 C 197.887 158.485,197.926 161.345,197.974 157.744 C 198.022 154.143,198.022 148.337,197.974 144.841 C 197.926 141.345,197.887 144.291,197.887 151.388 M299.312 151.238 C 299.312 158.252,299.352 161.122,299.400 157.614 C 299.448 154.107,299.448 148.368,299.400 144.861 C 299.352 141.354,299.312 144.224,299.312 151.238 M146.539 142.686 C 146.541 144.006,146.593 144.509,146.657 143.803 C 146.720 143.097,146.719 142.017,146.655 141.402 C 146.590 140.788,146.538 141.365,146.539 142.686 M340.675 141.935 C 340.675 142.843,340.731 143.215,340.800 142.761 C 340.869 142.307,340.869 141.564,340.800 141.110 C 340.731 140.656,340.675 141.028,340.675 141.935 M134.209 142.686 C 134.213 143.346,134.274 143.581,134.346 143.207 C 134.418 142.834,134.415 142.294,134.340 142.007 C 134.265 141.720,134.206 142.026,134.209 142.686 M152.860 148.087 C 152.860 150.728,152.906 151.768,152.962 150.398 C 153.017 149.029,153.017 146.868,152.961 145.597 C 152.905 144.326,152.859 145.446,152.860 148.087 M340.961 145.086 C 340.964 145.746,341.026 145.981,341.097 145.608 C 341.169 145.235,341.167 144.695,341.091 144.408 C 341.016 144.121,340.958 144.426,340.961 145.086 M97.010 145.986 C 97.012 146.812,97.071 147.114,97.140 146.658 C 97.209 146.201,97.207 145.526,97.135 145.157 C 97.064 144.788,97.008 145.161,97.010 145.986 M109.636 148.237 C 109.636 149.805,109.686 150.446,109.748 149.662 C 109.810 148.878,109.810 147.596,109.748 146.812 C 109.686 146.028,109.636 146.669,109.636 148.237 M344.582 147.337 C 344.582 148.410,344.637 148.848,344.703 148.312 C 344.770 147.776,344.770 146.898,344.703 146.362 C 344.637 145.825,344.582 146.264,344.582 147.337 M133.926 148.087 C 133.928 149.077,133.984 149.446,134.051 148.907 C 134.118 148.368,134.116 147.557,134.048 147.106 C 133.979 146.655,133.925 147.097,133.926 148.087 M344.582 152.738 C 344.582 153.811,344.637 154.250,344.703 153.713 C 344.770 153.177,344.770 152.299,344.703 151.763 C 344.637 151.227,344.582 151.665,344.582 152.738 M340.961 154.989 C 340.964 155.649,341.026 155.884,341.097 155.510 C 341.169 155.137,341.167 154.597,341.091 154.310 C 341.016 154.023,340.958 154.329,340.961 154.989 M340.675 158.140 C 340.675 159.047,340.731 159.419,340.800 158.965 C 340.869 158.511,340.869 157.768,340.800 157.314 C 340.731 156.860,340.675 157.232,340.675 158.140 M343.956 162.341 C 343.956 162.918,344.017 163.155,344.093 162.866 C 344.168 162.577,344.168 162.104,344.093 161.815 C 344.017 161.527,343.956 161.763,343.956 162.341 M138.919 163.166 L 137.884 164.291 139.010 163.257 C 140.057 162.294,140.273 162.041,140.044 162.041 C 139.994 162.041,139.487 162.547,138.919 163.166 M165.107 163.701 C 165.556 164.173,165.977 164.499,166.043 164.425 C 166.109 164.351,165.741 163.965,165.227 163.567 L 164.291 162.842 165.107 163.701 M168.272 164.959 C 168.812 165.025,169.622 165.024,170.073 164.956 C 170.524 164.887,170.083 164.832,169.092 164.834 C 168.102 164.836,167.733 164.892,168.272 164.959 M263.166 165.987 C 262.588 166.493,262.387 166.770,262.719 166.602 C 263.267 166.325,264.626 165.024,264.338 165.053 C 264.271 165.060,263.743 165.480,263.166 165.987 M276.344 165.750 C 276.744 166.243,277.869 166.987,277.869 166.759 C 277.869 166.701,277.431 166.333,276.894 165.941 C 276.291 165.499,276.081 165.426,276.344 165.750 M339.577 166.605 C 339.476 166.983,339.405 167.562,339.419 167.892 C 339.433 168.222,339.569 167.965,339.720 167.322 C 340.012 166.075,339.887 165.447,339.577 166.605 M194.049 167.042 C 193.761 167.329,193.802 168.578,194.105 168.765 C 194.246 168.853,194.295 168.576,194.214 168.151 C 194.124 167.680,194.229 167.275,194.483 167.114 C 194.711 166.970,194.752 166.849,194.574 166.846 C 194.395 166.844,194.159 166.932,194.049 167.042 M233.424 167.087 C 233.682 167.267,233.782 167.686,233.687 168.183 C 233.588 168.697,233.637 168.884,233.821 168.700 C 234.237 168.284,233.988 167.060,233.458 166.917 C 233.086 166.817,233.080 166.846,233.424 167.087 M177.074 168.507 C 177.030 169.410,177.625 169.848,178.830 169.800 L 179.895 169.757 178.707 169.575 C 177.771 169.431,177.475 169.233,177.311 168.642 C 177.138 168.014,177.099 167.992,177.074 168.507 M115.529 169.529 C 115.776 169.696,116.238 169.835,116.554 169.838 C 117.322 169.844,117.082 169.672,115.979 169.425 C 115.322 169.278,115.200 169.306,115.529 169.529 M159.940 169.529 C 160.188 169.696,160.649 169.835,160.965 169.838 C 161.733 169.844,161.493 169.672,160.390 169.425 C 159.733 169.278,159.611 169.306,159.940 169.529 M167.442 169.542 C 166.824 169.740,166.797 169.787,167.292 169.808 C 167.622 169.822,168.095 169.702,168.342 169.542 C 168.868 169.203,168.503 169.203,167.442 169.542 M181.020 169.449 C 181.309 169.525,181.782 169.525,182.071 169.449 C 182.359 169.374,182.123 169.312,181.545 169.312 C 180.968 169.312,180.731 169.374,181.020 169.449 M342.573 170.480 C 342.323 171.731,342.565 171.973,342.836 170.743 C 342.950 170.224,342.980 169.737,342.904 169.661 C 342.827 169.584,342.679 169.953,342.573 170.480 M163.166 170.060 C 163.702 170.126,164.580 170.126,165.116 170.060 C 165.653 169.993,165.214 169.939,164.141 169.939 C 163.068 169.939,162.629 169.993,163.166 170.060 M338.372 172.705 C 338.269 172.973,338.196 173.418,338.210 173.693 C 338.225 173.968,338.355 173.795,338.500 173.308 C 338.783 172.361,338.683 171.893,338.372 172.705 M136.463 179.057 C 136.836 179.129,137.376 179.126,137.663 179.051 C 137.950 178.976,137.644 178.917,136.984 178.920 C 136.324 178.924,136.089 178.985,136.463 179.057 M110.728 182.732 C 110.975 182.900,111.437 183.039,111.753 183.041 C 112.521 183.047,112.281 182.876,111.178 182.629 C 110.520 182.482,110.399 182.510,110.728 182.732 M116.279 183.946 C 116.609 184.088,117.149 184.200,117.479 184.195 C 117.962 184.188,117.932 184.139,117.329 183.946 C 116.303 183.617,115.514 183.617,116.279 183.946 M130.908 186.565 C 131.527 186.630,132.539 186.630,133.158 186.565 C 133.777 186.500,133.271 186.447,132.033 186.447 C 130.795 186.447,130.289 186.500,130.908 186.565 M314.615 217.929 L 313.428 219.205 314.704 218.019 C 315.890 216.915,316.117 216.654,315.890 216.654 C 315.841 216.654,315.267 217.228,314.615 217.929 M161.440 218.248 C 161.440 218.300,161.879 218.739,162.416 219.224 L 163.391 220.105 162.510 219.130 C 161.688 218.221,161.440 218.017,161.440 218.248 M166.842 218.837 C 166.842 218.883,167.888 219.929,169.167 221.163 L 171.493 223.406 169.250 221.080 C 167.167 218.920,166.842 218.618,166.842 218.837 M317.615 220.030 L 316.429 221.305 317.704 220.119 C 318.406 219.467,318.980 218.893,318.980 218.844 C 318.980 218.617,318.718 218.844,317.615 220.030 M166.542 223.706 C 167.937 225.109,169.147 226.257,169.229 226.257 C 169.312 226.257,168.237 225.109,166.842 223.706 C 165.446 222.303,164.237 221.155,164.154 221.155 C 164.072 221.155,165.146 222.303,166.542 223.706 M307.861 224.681 L 306.827 225.806 307.952 224.772 C 308.999 223.810,309.215 223.556,308.986 223.556 C 308.936 223.556,308.430 224.062,307.861 224.681 M197.749 245.311 C 198.162 245.547,198.635 245.740,198.800 245.740 C 198.965 245.740,198.762 245.547,198.350 245.311 C 197.937 245.075,197.464 244.882,197.299 244.882 C 197.134 244.882,197.337 245.075,197.749 245.311 M233.089 250.480 C 233.628 250.547,234.438 250.545,234.889 250.477 C 235.340 250.409,234.899 250.354,233.908 250.356 C 232.918 250.357,232.549 250.413,233.089 250.480 M246.437 250.477 C 246.890 250.546,247.633 250.546,248.087 250.477 C 248.541 250.409,248.170 250.352,247.262 250.352 C 246.354 250.352,245.983 250.409,246.437 250.477 M238.348 250.786 C 239.635 250.842,241.660 250.842,242.849 250.785 C 244.038 250.728,242.986 250.682,240.510 250.683 C 238.035 250.683,237.062 250.730,238.348 250.786 M219.805 252.363 C 220.135 252.505,220.675 252.617,221.005 252.612 C 221.488 252.605,221.458 252.556,220.855 252.363 C 219.829 252.035,219.040 252.035,219.805 252.363 M260.165 252.363 C 259.547 252.561,259.521 252.608,260.015 252.629 C 260.345 252.643,260.818 252.523,261.065 252.363 C 261.591 252.023,261.226 252.023,260.165 252.363 M228.432 253.770 C 228.721 253.846,229.194 253.846,229.482 253.770 C 229.771 253.695,229.535 253.633,228.957 253.633 C 228.380 253.633,228.143 253.695,228.432 253.770 M251.538 253.770 C 251.827 253.846,252.299 253.846,252.588 253.770 C 252.877 253.695,252.641 253.633,252.063 253.633 C 251.485 253.633,251.249 253.695,251.538 253.770 " stroke="none" fill="#9e74bf" fill-rule="evenodd"></path></g></svg>